<?xml version="1.0" encoding="UTF-8"?>
<svg version="1.1" xmlns="http://www.w3.org/2000/svg" width="48" height="48">
<path d="M0 0 C2.93081463 1.28637895 5.63522123 2.85104337 8.375 4.5 C12.149375 6.7275 12.149375 6.7275 16 9 C16 16.92 16 24.84 16 33 C13.48375 34.485 10.9675 35.97 8.375 37.5 C7.59431152 37.96986328 6.81362305 38.43972656 6.00927734 38.92382812 C1.88556361 41.29818272 -1.13808451 42.91160915 -6 42 C-8.93081463 40.71362105 -11.63522123 39.14895663 -14.375 37.5 C-16.89125 36.015 -19.4075 34.53 -22 33 C-22 25.08 -22 17.16 -22 9 C-19.48375 7.515 -16.9675 6.03 -14.375 4.5 C-13.59431152 4.03013672 -12.81362305 3.56027344 -12.00927734 3.07617188 C-7.88556361 0.70181728 -4.86191549 -0.91160915 0 0 Z " fill="#02E576" transform="translate(27,3)"/>
<path d="M0 0 C3.75212276 2.01502889 5.63644095 3.45466142 8 7 C6.25 8.5625 6.25 8.5625 4 10 C2.1875 9.75 2.1875 9.75 0 9 C-4.6072981 7.85833376 -4.6072981 7.85833376 -9 9 C-10.58910182 12.17820365 -9.7953556 14.635034 -9 18 C-7.11499729 20.31563087 -7.11499729 20.31563087 -4 20.25 C-0.88500271 20.31563087 -0.88500271 20.31563087 1 18 C3.61580479 18.3269756 5.64078137 18.82039068 8 20 C6.48209259 24.25014075 3.93622829 25.95899274 0 28 C-4.36240865 28.86900571 -7.27055791 28.36472104 -11.25 26.375 C-14.7168509 23.3809015 -17.47238201 20.69192851 -18.3828125 16.046875 C-18.6746341 10.94972447 -17.39090366 7.9263095 -14 4 C-9.53672431 0.14535282 -5.74493622 -1.1558537 0 0 Z " fill="#F7FDFA" transform="translate(28,10)"/>
<path d="M0 0 C2.92863882 1.28542396 5.6375592 2.85159532 8.375 4.5 C9.11105469 4.92925781 9.84710938 5.35851562 10.60546875 5.80078125 C12.41044544 6.85563776 14.20618718 7.92626881 16 9 C14.19934473 10.92035201 13.11454559 11.95478464 10.625 12.9375 C6.94995974 13.02500096 5.63989766 11.4258519 3 9 C-0.21685579 7.39157211 -3.5111009 7.53221465 -7 8 C-11.36045847 10.22136563 -14.13277421 12.43567029 -16 17 C-16.40931659 20.86576784 -16.23919037 24.28242889 -15 28 C-19.75 31 -19.75 31 -22 31 C-22 23.74 -22 16.48 -22 9 C-19.48375 7.515 -16.9675 6.03 -14.375 4.5 C-13.59431152 4.03013672 -12.81362305 3.56027344 -12.00927734 3.07617188 C-7.88556361 0.70181728 -4.86191549 -0.91160915 0 0 Z " fill="#65EEAA" transform="translate(27,3)"/>
<path d="M0 0 C1.63741012 1.14122524 3.23319604 2.34212876 4.8125 3.5625 C8.77969545 5.8512666 11.58474022 6.34913972 16.0625 5.4375 C19.37430732 3.6746888 19.37430732 3.6746888 22.0625 1.4375 C23.0525 0.7775 24.0425 0.1175 25.0625 -0.5625 C27.0425 0.4275 29.0225 1.4175 31.0625 2.4375 C31.0625 3.0975 31.0625 3.7575 31.0625 4.4375 C28.52936886 5.95376852 25.98762202 7.45030099 23.4375 8.9375 C22.36822266 9.58138672 22.36822266 9.58138672 21.27734375 10.23828125 C17.0865767 12.66046771 14.01276179 14.36567408 9.0625 13.4375 C6.13386118 12.15207604 3.4249408 10.58590468 0.6875 8.9375 C-0.04855469 8.50824219 -0.78460938 8.07898437 -1.54296875 7.63671875 C-3.34794544 6.58186224 -5.14368718 5.51123119 -6.9375 4.4375 C-6.9375 3.7775 -6.9375 3.1175 -6.9375 2.4375 C-2.76971477 -0.80411074 -2.76971477 -0.80411074 0 0 Z " fill="#03C855" transform="translate(11.9375,31.5625)"/>
<path d="M0 0 C1.0725 0.2475 2.145 0.495 3.25 0.75 C3.25 2.07 3.25 3.39 3.25 4.75 C-1.7 7.225 -1.7 7.225 -6.75 9.75 C-7.75 8.75 -7.75 8.75 -8.0625 6.4375 C-7.75 3.75 -7.75 3.75 -6.1875 1.375 C-3.75 -0.25 -3.75 -0.25 0 0 Z " fill="#6BEFAE" transform="translate(24.75,17.25)"/>
<path d="M0 0 C2.3125 1.3125 2.3125 1.3125 4.3125 3.3125 C2.41692866 5.83992845 1.50660622 6.28419284 -1.6875 6.75 C-4.6875 6.3125 -4.6875 6.3125 -6.5625 4.3125 C-6.93375 3.6525 -7.305 2.9925 -7.6875 2.3125 C-3.40273619 -0.8704674 -3.40273619 -0.8704674 0 0 Z " fill="#09CA5A" transform="translate(25.6875,24.6875)"/>
<path d="M0 0 C0.33 0.66 0.66 1.32 1 2 C1.66 2 2.32 2 3 2 C3.33 1.34 3.66 0.68 4 0 C4 0.66 4 1.32 4 2 C4.66 2.33 5.32 2.66 6 3 C5.34 3 4.68 3 4 3 C4 3.66 4 4.32 4 5 C4.66 5.33 5.32 5.66 6 6 C5.34 6 4.68 6 4 6 C3.67 6.66 3.34 7.32 3 8 C3 7.34 3 6.68 3 6 C2.34 6 1.68 6 1 6 C0.67 6.66 0.34 7.32 0 8 C0 7.34 0 6.68 0 6 C-0.66 5.67 -1.32 5.34 -2 5 C-1.34 5 -0.68 5 0 5 C0 4.34 0 3.68 0 3 C-0.66 2.67 -1.32 2.34 -2 2 C-1.34 2 -0.68 2 0 2 C0 1.34 0 0.68 0 0 Z " fill="#DFFBED" transform="translate(34,20)"/>
</svg>
