<svg xmlns="http://www.w3.org/2000/svg"  viewBox="0 0 24 23.873" width="48px" height="48px"><path d="M 12 1 A 2 2 0 0 0 12 5 A 2 2 0 0 0 12 1 z M 6 2 A 2 2 0 0 0 6 6 A 2 2 0 0 0 6 2 z M 18 2 A 2 2 0 0 0 18 6 A 2 2 0 0 0 18 2 z M 10.521484 7.9160156 C 10.191484 7.9160156 9.938625 8.2162031 10.015625 8.5332031 C 10.167625 9.1742031 10.586328 10.174656 11.736328 10.847656 C 11.894328 10.940656 12.107625 10.940656 12.265625 10.847656 C 13.414625 10.173656 13.833328 9.1732031 13.986328 8.5332031 C 14.061328 8.2162031 13.808516 7.9160156 13.478516 7.9160156 L 10.521484 7.9160156 z M 19.609375 8.0605469 C 19.535922 8.0452344 19.458359 8.0464063 19.380859 8.0664062 L 16.380859 8.8261719 C 16.160859 8.8761719 16.02 9.0766406 16 9.3066406 C 15.863609 11.196626 13.70152 12.979492 11.990234 14.087891 C 10.283603 12.976702 8.1343757 11.195768 7.9980469 9.3066406 C 7.9820469 9.0786406 7.8430938 8.8782656 7.6210938 8.8222656 L 4.6113281 8.0683594 C 4.3013281 7.9903594 3.9802812 8.2190625 3.9882812 8.5390625 C 4.0802812 12.217062 7.4761875 15.719047 9.8671875 17.248047 C 12.261187 18.777047 14.057703 21.379266 14.720703 22.447266 C 14.905703 22.745266 15.228125 22.925828 15.578125 22.923828 L 16.998047 22.917969 L 17.509766 22.917969 C 18.253766 22.917969 18.731297 22.138703 18.404297 21.470703 C 17.793089 20.219595 16.681005 18.35029 15.023438 16.607422 C 17.284237 14.867011 19.922804 11.771468 20.001953 8.5351562 C 20.008703 8.2951562 19.829734 8.1064844 19.609375 8.0605469 z M 7.6601562 18.126953 C 6.7001563 19.376953 6.0200781 20.586797 5.5800781 21.466797 C 5.2500781 22.136797 5.7304688 22.916016 6.4804688 22.916016 C 6.4804688 22.916016 8.47 22.926016 8.5 22.916016 C 8.81 22.896016 9.0995313 22.715312 9.2695312 22.445312 C 9.5495313 22.005312 10.030156 21.286328 10.660156 20.486328 C 10.100156 19.916328 9.4690625 19.375547 8.7890625 18.935547 C 8.4490625 18.715547 8.0701563 18.446953 7.6601562 18.126953 z"/></svg>